<mxfile host="app.diagrams.net" modified="2023-12-20T05:52:33.227Z" agent="Mozilla/5.0 (X11; Linux x86_64) AppleWebKit/537.36 (KHTML, like Gecko) Chrome/120.0.0.0 Safari/537.36" etag="iJIwaoHfIzE-UR3JW6Cw" version="22.1.11" type="github">
  <diagram name="Page-1" id="tvv9L5U_C2Xs1THGLsmi">
    <mxGraphModel dx="941" dy="523" grid="1" gridSize="10" guides="1" tooltips="1" connect="1" arrows="1" fold="1" page="1" pageScale="1" pageWidth="850" pageHeight="1100" math="0" shadow="0">
      <root>
        <mxCell id="0" />
        <mxCell id="1" parent="0" />
        <mxCell id="y4aT7-0Yj_3KUyjyIQen-1" value="" style="rounded=0;whiteSpace=wrap;html=1;fillColor=#dae8fc;strokeColor=#6c8ebf;" vertex="1" parent="1">
          <mxGeometry x="270" y="540" width="310" height="190" as="geometry" />
        </mxCell>
        <mxCell id="y4aT7-0Yj_3KUyjyIQen-2" value="Presentation (app)" style="text;html=1;strokeColor=none;fillColor=none;align=center;verticalAlign=middle;whiteSpace=wrap;rounded=0;" vertex="1" parent="1">
          <mxGeometry x="395" y="630" width="60" height="30" as="geometry" />
        </mxCell>
        <mxCell id="y4aT7-0Yj_3KUyjyIQen-3" value="Создание зависимостей" style="text;html=1;strokeColor=none;fillColor=none;align=center;verticalAlign=middle;whiteSpace=wrap;rounded=0;" vertex="1" parent="1">
          <mxGeometry x="290" y="620" width="60" height="30" as="geometry" />
        </mxCell>
        <mxCell id="y4aT7-0Yj_3KUyjyIQen-4" value="Activity" style="rounded=0;whiteSpace=wrap;html=1;fillColor=#e1d5e7;strokeColor=#9673a6;" vertex="1" parent="1">
          <mxGeometry x="365" y="550" width="120" height="70" as="geometry" />
        </mxCell>
        <mxCell id="y4aT7-0Yj_3KUyjyIQen-33" style="edgeStyle=orthogonalEdgeStyle;rounded=0;orthogonalLoop=1;jettySize=auto;html=1;entryX=1;entryY=0.5;entryDx=0;entryDy=0;exitX=1;exitY=0.5;exitDx=0;exitDy=0;" edge="1" parent="1" source="y4aT7-0Yj_3KUyjyIQen-5" target="y4aT7-0Yj_3KUyjyIQen-7">
          <mxGeometry relative="1" as="geometry">
            <Array as="points">
              <mxPoint x="610" y="370" />
              <mxPoint x="610" y="130" />
            </Array>
          </mxGeometry>
        </mxCell>
        <mxCell id="y4aT7-0Yj_3KUyjyIQen-34" style="edgeStyle=orthogonalEdgeStyle;rounded=0;orthogonalLoop=1;jettySize=auto;html=1;exitX=1;exitY=0.75;exitDx=0;exitDy=0;entryX=1;entryY=0.5;entryDx=0;entryDy=0;" edge="1" parent="1" source="y4aT7-0Yj_3KUyjyIQen-5" target="y4aT7-0Yj_3KUyjyIQen-1">
          <mxGeometry relative="1" as="geometry">
            <Array as="points">
              <mxPoint x="610" y="420" />
              <mxPoint x="610" y="635" />
            </Array>
          </mxGeometry>
        </mxCell>
        <mxCell id="y4aT7-0Yj_3KUyjyIQen-5" value="Domain" style="rounded=0;whiteSpace=wrap;html=1;fillColor=#6d8764;strokeColor=#3A5431;fontColor=#ffffff;" vertex="1" parent="1">
          <mxGeometry x="270" y="270" width="310" height="200" as="geometry" />
        </mxCell>
        <mxCell id="y4aT7-0Yj_3KUyjyIQen-36" style="edgeStyle=orthogonalEdgeStyle;rounded=0;orthogonalLoop=1;jettySize=auto;html=1;entryX=0;entryY=0.5;entryDx=0;entryDy=0;" edge="1" parent="1" source="y4aT7-0Yj_3KUyjyIQen-7" target="y4aT7-0Yj_3KUyjyIQen-1">
          <mxGeometry relative="1" as="geometry">
            <Array as="points">
              <mxPoint x="220" y="150" />
              <mxPoint x="220" y="635" />
            </Array>
          </mxGeometry>
        </mxCell>
        <mxCell id="y4aT7-0Yj_3KUyjyIQen-7" value="Data" style="rounded=0;whiteSpace=wrap;html=1;fillColor=#e51400;strokeColor=#B20000;fontColor=#ffffff;" vertex="1" parent="1">
          <mxGeometry x="270" width="310" height="260" as="geometry" />
        </mxCell>
        <mxCell id="y4aT7-0Yj_3KUyjyIQen-8" value="GetUsernameUseCase" style="ellipse;whiteSpace=wrap;html=1;fillColor=#60a917;strokeColor=#2D7600;fontColor=#ffffff;" vertex="1" parent="1">
          <mxGeometry x="280" y="390" width="120" height="70" as="geometry" />
        </mxCell>
        <mxCell id="y4aT7-0Yj_3KUyjyIQen-9" value="SaveUserNameUseCase" style="ellipse;whiteSpace=wrap;html=1;fillColor=#60a917;strokeColor=#2D7600;fontColor=#ffffff;" vertex="1" parent="1">
          <mxGeometry x="455" y="390" width="120" height="70" as="geometry" />
        </mxCell>
        <mxCell id="y4aT7-0Yj_3KUyjyIQen-17" style="edgeStyle=orthogonalEdgeStyle;rounded=0;orthogonalLoop=1;jettySize=auto;html=1;exitX=0.5;exitY=1;exitDx=0;exitDy=0;" edge="1" parent="1" source="y4aT7-0Yj_3KUyjyIQen-10" target="y4aT7-0Yj_3KUyjyIQen-8">
          <mxGeometry relative="1" as="geometry">
            <Array as="points">
              <mxPoint x="340" y="320" />
            </Array>
          </mxGeometry>
        </mxCell>
        <mxCell id="y4aT7-0Yj_3KUyjyIQen-18" style="edgeStyle=orthogonalEdgeStyle;rounded=0;orthogonalLoop=1;jettySize=auto;html=1;exitX=0.5;exitY=1;exitDx=0;exitDy=0;entryX=0.5;entryY=0;entryDx=0;entryDy=0;" edge="1" parent="1" source="y4aT7-0Yj_3KUyjyIQen-10" target="y4aT7-0Yj_3KUyjyIQen-9">
          <mxGeometry relative="1" as="geometry">
            <Array as="points">
              <mxPoint x="370" y="320" />
              <mxPoint x="370" y="380" />
              <mxPoint x="515" y="380" />
            </Array>
          </mxGeometry>
        </mxCell>
        <mxCell id="y4aT7-0Yj_3KUyjyIQen-10" value="UserRepository - interface" style="rounded=0;whiteSpace=wrap;html=1;fillColor=#008a00;fontColor=#ffffff;strokeColor=#005700;" vertex="1" parent="1">
          <mxGeometry x="305" y="290" width="120" height="30" as="geometry" />
        </mxCell>
        <mxCell id="y4aT7-0Yj_3KUyjyIQen-14" value="" style="endArrow=classic;html=1;rounded=0;entryX=0.25;entryY=0;entryDx=0;entryDy=0;exitX=0.5;exitY=1;exitDx=0;exitDy=0;" edge="1" parent="1" source="y4aT7-0Yj_3KUyjyIQen-8" target="y4aT7-0Yj_3KUyjyIQen-4">
          <mxGeometry width="50" height="50" relative="1" as="geometry">
            <mxPoint x="400" y="480" as="sourcePoint" />
            <mxPoint x="450" y="430" as="targetPoint" />
          </mxGeometry>
        </mxCell>
        <mxCell id="y4aT7-0Yj_3KUyjyIQen-15" value="" style="endArrow=classic;html=1;rounded=0;entryX=0.75;entryY=0;entryDx=0;entryDy=0;exitX=0.5;exitY=1;exitDx=0;exitDy=0;" edge="1" parent="1" source="y4aT7-0Yj_3KUyjyIQen-9" target="y4aT7-0Yj_3KUyjyIQen-4">
          <mxGeometry width="50" height="50" relative="1" as="geometry">
            <mxPoint x="350" y="470" as="sourcePoint" />
            <mxPoint x="405" y="560" as="targetPoint" />
          </mxGeometry>
        </mxCell>
        <mxCell id="y4aT7-0Yj_3KUyjyIQen-22" value="UserName model" style="rounded=0;whiteSpace=wrap;html=1;fillColor=#008a00;fontColor=#ffffff;strokeColor=#005700;" vertex="1" parent="1">
          <mxGeometry x="470" y="290" width="110" height="20" as="geometry" />
        </mxCell>
        <mxCell id="y4aT7-0Yj_3KUyjyIQen-24" value="SaveUserNameParam model" style="rounded=0;whiteSpace=wrap;html=1;fillColor=#008a00;fontColor=#ffffff;strokeColor=#005700;" vertex="1" parent="1">
          <mxGeometry x="460" y="320" width="120" height="30" as="geometry" />
        </mxCell>
        <mxCell id="y4aT7-0Yj_3KUyjyIQen-25" value="" style="rounded=0;whiteSpace=wrap;html=1;fillColor=#fa6800;fontColor=#000000;strokeColor=#C73500;" vertex="1" parent="1">
          <mxGeometry x="440" y="10" width="135" height="160" as="geometry" />
        </mxCell>
        <mxCell id="y4aT7-0Yj_3KUyjyIQen-26" value="UserStorage interface" style="rounded=0;whiteSpace=wrap;html=1;fillColor=#a0522d;fontColor=#ffffff;strokeColor=#6D1F00;" vertex="1" parent="1">
          <mxGeometry x="447.5" y="40" width="120" height="20" as="geometry" />
        </mxCell>
        <mxCell id="y4aT7-0Yj_3KUyjyIQen-28" value="SharedPrefsUserStorage implementation" style="rounded=0;whiteSpace=wrap;html=1;fillColor=#a0522d;fontColor=#ffffff;strokeColor=#6D1F00;" vertex="1" parent="1">
          <mxGeometry x="447.5" y="70" width="120" height="40" as="geometry" />
        </mxCell>
        <mxCell id="y4aT7-0Yj_3KUyjyIQen-29" value="User model" style="rounded=0;whiteSpace=wrap;html=1;fillColor=#a0522d;fontColor=#ffffff;strokeColor=#6D1F00;" vertex="1" parent="1">
          <mxGeometry x="447.5" y="140" width="120" height="20" as="geometry" />
        </mxCell>
        <mxCell id="y4aT7-0Yj_3KUyjyIQen-30" value="SharedPrefsUserStorage implementation" style="rounded=0;whiteSpace=wrap;html=1;fillColor=#a0522d;fontColor=#ffffff;strokeColor=#6D1F00;" vertex="1" parent="1">
          <mxGeometry x="280" y="20" width="140" height="40" as="geometry" />
        </mxCell>
        <mxCell id="y4aT7-0Yj_3KUyjyIQen-31" value="Storage" style="text;html=1;strokeColor=none;fillColor=none;align=center;verticalAlign=middle;whiteSpace=wrap;rounded=0;" vertex="1" parent="1">
          <mxGeometry x="470" y="10" width="60" height="30" as="geometry" />
        </mxCell>
      </root>
    </mxGraphModel>
  </diagram>
</mxfile>
